<?xml version="1.0" encoding="UTF-8" standalone="no"?>
<svg
   enable-background="new 0 0 32 32"
   height="32px"
   id="Layer_1"
   version="1.0"
   viewBox="0 0 32 32"
   width="32px"
   xml:space="preserve"
   sodipodi:docname="github.svg"
   inkscape:version="1.1.1 (26b7af14f2, 2022-01-19)"
   inkscape:export-filename="/home/terry/Downloads/github.png"
   inkscape:export-xdpi="96"
   inkscape:export-ydpi="96"
   xmlns:inkscape="http://www.inkscape.org/namespaces/inkscape"
   xmlns:sodipodi="http://sodipodi.sourceforge.net/DTD/sodipodi-0.dtd"
   xmlns="http://www.w3.org/2000/svg"
   xmlns:svg="http://www.w3.org/2000/svg"><defs
     id="defs74" /><sodipodi:namedview
     id="namedview72"
     pagecolor="#ffffff"
     bordercolor="#666666"
     borderopacity="1.0"
     inkscape:pageshadow="2"
     inkscape:pageopacity="0.0"
     inkscape:pagecheckerboard="true"
     showgrid="false"
     inkscape:zoom="41.896077"
     inkscape:cx="13.545421"
     inkscape:cy="17.638883"
     inkscape:window-width="3840"
     inkscape:window-height="2105"
     inkscape:window-x="0"
     inkscape:window-y="27"
     inkscape:window-maximized="1"
     inkscape:current-layer="layer4" /><g
     inkscape:groupmode="layer"
     id="layer4"
     inkscape:label="Layer 2"
     style="display:inline"><circle
       style="fill:#ffffff;stroke-width:0.997608"
       id="path713"
       cx="16"
       cy="16"
       inkscape:export-filename="/home/terry/Downloads/path713.png"
       inkscape:export-xdpi="96"
       inkscape:export-ydpi="96"
       r="15.9" /></g><g
     id="g59" /><g
     id="g61" /><g
     id="g63" /><g
     id="g65" /><g
     id="g67" /><g
     id="g69" /><g
     inkscape:groupmode="layer"
     id="layer3"
     inkscape:label="Layer 1"
     style="display:inline"><path
       clip-rule="evenodd"
       d="M 16.003,0 C 7.17,0 0.008,7.162 0.008,15.997 c 0,7.067 4.582,13.063 10.94,15.179 0.8,0.146 1.052,-0.328 1.052,-0.752 0,-0.38 0.008,-1.442 0,-2.777 C 7.551,28.614 6.629,25.54 6.629,25.54 5.902,23.692 4.854,23.2 4.854,23.2 3.402,22.208 4.963,22.227 4.963,22.227 c 1.605,0.113 2.451,1.649 2.451,1.649 1.427,2.443 3.743,1.737 4.654,1.329 0.146,-1.034 0.56,-1.739 1.017,-2.139 C 9.533,22.662 5.799,21.29 5.799,15.16 5.799,13.413 6.422,11.986 7.445,10.868 7.28,10.464 6.73,8.837 7.602,6.634 c 0,0 1.343,-0.43 4.398,1.641 1.276,-0.355 2.645,-0.532 4.005,-0.538 1.359,0.006 2.727,0.183 4.005,0.538 3.055,-2.07 4.396,-1.641 4.396,-1.641 0.872,2.203 0.323,3.83 0.159,4.234 1.023,1.118 1.644,2.545 1.644,4.292 0,6.146 -3.74,7.498 -7.304,7.893 C 19.479,23.548 20,24.508 20,26 c 0,2 0,3.902 0,4.428 0,0.428 0.258,0.901 1.07,0.746 C 27.422,29.055 32,23.062 32,15.997 32,7.162 24.838,0 16.003,0 Z"
       fill="#181616"
       fill-rule="evenodd"
       id="path57" /></g></svg>
