<?xml version="1.0" encoding="UTF-8" standalone="no"?>
<svg
   height="100%"
   style="fill-rule:evenodd;clip-rule:evenodd;stroke-linejoin:round;stroke-miterlimit:2;"
   version="1.1"
   viewBox="0 0 512 512"
   width="100%"
   xml:space="preserve"
   id="svg1643"
   sodipodi:docname="twitter.svg"
   inkscape:version="1.1.1 (26b7af14f2, 2022-01-19)"
   xmlns:inkscape="http://www.inkscape.org/namespaces/inkscape"
   xmlns:sodipodi="http://sodipodi.sourceforge.net/DTD/sodipodi-0.dtd"
   xmlns="http://www.w3.org/2000/svg"
   xmlns:svg="http://www.w3.org/2000/svg"><defs
     id="defs1647" /><sodipodi:namedview
     id="namedview1645"
     pagecolor="#ffffff"
     bordercolor="#666666"
     borderopacity="1.0"
     inkscape:pageshadow="2"
     inkscape:pageopacity="0.0"
     inkscape:pagecheckerboard="true"
     showgrid="false"
     inkscape:zoom="3.6210938"
     inkscape:cx="255.86192"
     inkscape:cy="256"
     inkscape:window-width="3840"
     inkscape:window-height="2105"
     inkscape:window-x="0"
     inkscape:window-y="27"
     inkscape:window-maximized="1"
     inkscape:current-layer="svg1643" /><circle
     style="fill:#ffffff;stroke-width:5.07785"
     id="path1751"
     cx="256"
     cy="256"
     r="255.5" /><path
     d="M256,0c141.29,0 256,114.71 256,256c0,141.29 -114.71,256 -256,256c-141.29,0 -256,-114.71 -256,-256c0,-141.29 114.71,-256 256,-256Zm-45.091,392.158c113.283,0 175.224,-93.87 175.224,-175.223c0,-2.682 0,-5.364 -0.128,-7.919c12.005,-8.684 22.478,-19.54 30.779,-31.928c-10.983,4.853 -22.861,8.174 -35.377,9.706c12.772,-7.663 22.478,-19.668 27.076,-34.099c-11.878,7.024 -25.032,12.132 -39.081,14.942c-11.239,-12.005 -27.203,-19.412 -44.955,-19.412c-33.972,0 -61.558,27.586 -61.558,61.558c0,4.853 0.511,9.578 1.66,14.048c-51.213,-2.554 -96.552,-27.075 -126.947,-64.368c-5.237,9.068 -8.302,19.668 -8.302,30.907c0,21.328 10.856,40.23 27.459,51.213c-10.09,-0.255 -19.541,-3.065 -27.842,-7.662l0,0.766c0,29.885 21.2,54.661 49.425,60.409c-5.108,1.404 -10.6,2.171 -16.219,2.171c-3.96,0 -7.791,-0.383 -11.622,-1.15c7.79,24.521 30.523,42.274 57.471,42.784c-21.073,16.476 -47.637,26.31 -76.501,26.31c-4.981,0 -9.834,-0.256 -14.687,-0.894c26.948,17.624 59.387,27.841 94.125,27.841Z"
     id="path1641" /></svg>
